<svg xmlns="http://www.w3.org/2000/svg" xmlns:xlink="http://www.w3.org/1999/xlink" width="500" zoomAndPan="magnify" viewBox="0 0 375 374.999991" height="500" preserveAspectRatio="xMidYMid meet" version="1.0"><defs><clipPath id="cda2324590"><path d="M 50.808594 149 L 116 149 L 116 214 L 50.808594 214 Z M 50.808594 149 " clip-rule="nonzero"/></clipPath><clipPath id="39055b3867"><path d="M 207 149 L 324.558594 149 L 324.558594 304.660156 L 207 304.660156 Z M 207 149 " clip-rule="nonzero"/></clipPath><clipPath id="382b885281"><path d="M 103 58 L 220 58 L 220 304.660156 L 103 304.660156 Z M 103 58 " clip-rule="nonzero"/></clipPath></defs><rect x="-37.5" width="450" fill="#ffffff" y="-37.499999" height="449.999989" fill-opacity="1"/><rect x="-37.5" width="450" fill="#ffffff" y="-37.499999" height="449.999989" fill-opacity="1"/><g clip-path="url(#cda2324590)"><path fill="#f46530" d="M 50.808594 181.367188 C 50.808594 163.601562 65.21875 149.238281 82.9375 149.238281 C 100.703125 149.238281 115.066406 163.644531 115.066406 181.367188 C 115.066406 199.132812 100.660156 213.492188 82.9375 213.492188 C 65.171875 213.492188 50.808594 199.085938 50.808594 181.367188 Z M 50.808594 181.367188 " fill-opacity="1" fill-rule="evenodd"/></g><path fill="#f46530" d="M 223.691406 118.65625 C 208.3125 109.773438 203.054688 90.152344 211.9375 74.773438 C 220.820312 59.394531 240.441406 54.136719 255.820312 63.019531 C 271.199219 71.902344 276.457031 91.523438 267.574219 106.902344 C 258.691406 122.28125 239.070312 127.539062 223.691406 118.65625 Z M 223.691406 118.65625 " fill-opacity="1" fill-rule="evenodd"/><g clip-path="url(#39055b3867)"><path fill="#f46530" d="M 287.109375 213.140625 L 264.789062 251.765625 C 265.808594 253.046875 266.734375 254.417969 267.574219 255.875 C 276.457031 271.253906 271.199219 290.875 255.820312 299.757812 C 240.441406 308.640625 220.820312 303.382812 211.9375 288.003906 C 203.054688 272.625 208.3125 253.003906 223.691406 244.121094 C 230.320312 240.320312 237.699219 239.125 244.726562 240.1875 L 267.042969 201.5625 C 262.582031 196.039062 259.929688 189.054688 259.929688 181.410156 C 259.929688 163.644531 274.335938 149.28125 292.058594 149.28125 C 309.824219 149.28125 324.183594 163.6875 324.183594 181.410156 C 324.183594 199.175781 309.777344 213.539062 292.058594 213.539062 C 290.378906 213.539062 288.699219 213.40625 287.109375 213.140625 Z M 287.109375 213.140625 " fill-opacity="1" fill-rule="evenodd"/></g><g clip-path="url(#382b885281)"><path fill="#211a52" d="M 140.167969 122.589844 C 127.441406 124.578125 114.226562 118.746094 107.378906 106.902344 C 98.496094 91.523438 103.753906 71.902344 119.132812 63.019531 C 134.511719 54.136719 154.132812 59.394531 163.015625 74.773438 C 169.863281 86.617188 168.320312 100.980469 160.230469 111.011719 L 182.546875 149.636719 C 184.140625 149.371094 185.820312 149.238281 187.496094 149.238281 C 205.261719 149.238281 219.625 163.644531 219.625 181.367188 C 219.625 199.132812 205.21875 213.492188 187.496094 213.492188 C 185.820312 213.492188 184.183594 213.359375 182.59375 213.097656 L 160.277344 251.765625 C 168.363281 261.796875 169.910156 276.160156 163.058594 287.957031 C 154.175781 303.335938 134.554688 308.597656 119.175781 299.714844 C 103.796875 290.832031 98.539062 271.210938 107.421875 255.832031 C 114.226562 243.988281 127.441406 238.152344 140.167969 240.140625 L 162.484375 201.472656 C 158.066406 195.949219 155.371094 188.96875 155.371094 181.320312 C 155.371094 173.675781 158.023438 166.695312 162.484375 161.171875 L 140.167969 122.546875 Z M 140.167969 122.589844 " fill-opacity="1" fill-rule="evenodd"/></g></svg>